<svg xmlns="http://www.w3.org/2000/svg" version="1.1" xmlns:xlink="http://www.w3.org/1999/xlink" xmlns:svgjs="http://svgjs.dev/svgjs" width="2000" height="1414" viewBox="0 0 2000 1414"><g transform="matrix(1,0,0,1,-1.2121212121212466,0.0008079999810206573)"><svg viewBox="0 0 396 280" data-background-color="#755532" preserveAspectRatio="xMidYMid meet" height="1414" width="2000" xmlns="http://www.w3.org/2000/svg" xmlns:xlink="http://www.w3.org/1999/xlink"><g id="tight-bounds" transform="matrix(1,0,0,1,0.2400000000000091,-0.00015999999624227712)"><svg viewBox="0 0 395.52 280" height="280" width="395.52"><g><svg viewBox="0 0 395.52 280" height="280" width="395.52"><g><svg viewBox="0 0 395.52 280" height="280" width="395.52"><g><svg viewBox="0 0 395.52 280" height="280" width="395.52"><g><svg viewBox="0 0 395.52 280" height="280" width="395.52"><g transform="matrix(1,0,0,1,95.65203525306555,57.50420886156945)"><svg viewBox="0 0 204.21592949386888 164.9915822768611" height="164.9915822768611" width="204.21592949386888"><g><circle r="82" cx="102.10796474693444" cy="82.49579113843055" fill="#ffffff" data-fill-palette-color="accent"></circle><svg xmlns="http://www.w3.org/2000/svg" xmlns:xlink="http://www.w3.org/1999/xlink" version="1.1" x="34.95935926186291" y="34.959359261862915" viewBox="21.10799789428711 8.660999298095703 57.7859992980957 88.125" enable-background="new 0 0 100 100" xml:space="preserve" height="95.07286375313527" width="134.29721097014308" class="icon-o-0" data-fill-palette-color="quaternary" id="o-0"><polygon fill="#755532" points="34.996,69.418 37.345,65.814 39.689,69.418 42.714,69.418 38.864,63.497 42.512,57.921   39.507,57.921 37.354,61.193 35.226,57.921 32.203,57.921 35.84,63.503 31.966,69.418 " data-fill-palette-color="quaternary"></polygon><polygon fill="#755532" points="60.314,69.418 62.666,65.814 65.008,69.418 68.033,69.418 64.182,63.497 67.828,57.921   64.822,57.921 62.676,61.193 60.545,57.921 57.521,57.921 61.154,63.503 57.287,69.418 " data-fill-palette-color="quaternary"></polygon><polygon fill="#755532" points="47.649,69.418 50.013,65.814 52.354,69.418 55.367,69.418 51.521,63.497 55.164,57.921   52.162,57.921 50.017,61.193 47.883,57.921 44.866,57.921 48.496,63.503 44.634,69.418 " data-fill-palette-color="quaternary"></polygon><path fill="#755532" d="M61.301 13.016c0-2.405-1.914-4.355-4.258-4.355H42.969c-2.36 0-4.267 1.95-4.267 4.355v3.002h22.598V13.016z" data-fill-palette-color="quaternary"></path><path fill="#755532" d="M67.123 31.574c-2.176-0.702-4.229-1.373-5.822-2.259V18.254H38.703v11.061c-1.593 0.887-3.654 1.558-5.831 2.265-5.511 1.785-11.76 3.812-11.756 10.311l-0.008 46.924c0 4.397 3.489 7.971 7.782 7.971h42.219c4.291 0 7.785-3.573 7.785-7.971V41.891C78.893 35.393 72.637 33.36 67.123 31.574zM73.881 77.244H26.119V49.856h47.762V77.244z" data-fill-palette-color="quaternary"></path></svg></g></svg></g><path d="M83.03 94.961V94.961C84.348 95.405 85.384 96.05 86.138 96.894 86.894 97.732 87.422 98.665 87.722 99.692 88.023 100.714 88.131 101.789 88.044 102.919 87.952 104.046 87.734 105.12 87.389 106.141V106.141C87.034 107.194 86.624 108.067 86.158 108.759 85.693 109.452 85.259 110.085 84.855 110.658V110.658C84.588 111.031 84.349 111.375 84.138 111.69 83.928 111.999 83.766 112.323 83.651 112.664V112.664L79.16 111.148 79.294 110.751C80.29 111.087 81.17 111.1 81.935 110.789 82.7 110.478 83.356 110.033 83.903 109.452 84.448 108.877 84.883 108.263 85.21 107.607 85.527 106.956 85.741 106.47 85.849 106.149V106.149C86.23 105.02 86.393 103.994 86.34 103.07 86.288 102.14 86.08 101.322 85.714 100.616 85.357 99.906 84.892 99.317 84.32 98.85 83.743 98.375 83.114 98.022 82.433 97.792V97.792C81.563 97.499 80.769 97.438 80.051 97.61 79.335 97.776 78.654 98.08 78.006 98.521 77.359 98.963 76.749 99.512 76.176 100.168 75.604 100.825 75.027 101.494 74.446 102.176V102.176C73.804 102.956 73.153 103.719 72.494 104.466 71.83 105.204 71.115 105.826 70.347 106.333 69.576 106.831 68.743 107.164 67.851 107.334 66.958 107.503 65.96 107.401 64.857 107.029V107.029C63.697 106.638 62.767 106.075 62.067 105.34 61.361 104.604 60.857 103.767 60.555 102.829 60.26 101.894 60.135 100.901 60.181 99.849 60.229 98.791 60.421 97.764 60.757 96.768V96.768C60.989 96.081 61.254 95.451 61.553 94.877 61.845 94.302 62.15 93.762 62.467 93.259V93.259C62.725 92.847 62.957 92.441 63.163 92.04 63.374 91.641 63.546 91.246 63.678 90.855V90.855L67.744 92.227 67.613 92.614C66.226 92.21 65.114 92.438 64.275 93.3 63.445 94.157 62.724 95.494 62.112 97.309V97.309C61.757 98.362 61.645 99.286 61.777 100.082 61.904 100.869 62.157 101.548 62.533 102.117 62.918 102.682 63.383 103.137 63.926 103.482 64.464 103.825 64.956 104.072 65.404 104.223V104.223C66.141 104.471 66.83 104.521 67.47 104.372 68.104 104.221 68.713 103.935 69.297 103.514 69.875 103.091 70.443 102.573 71.001 101.961 71.56 101.343 72.118 100.688 72.674 99.998V99.998C73.323 99.22 73.998 98.436 74.699 97.648 75.406 96.862 76.173 96.204 76.997 95.674 77.815 95.143 78.724 94.79 79.724 94.614 80.718 94.437 81.82 94.552 83.03 94.961ZM72.679 72.278L72.324 72.054 75.48 67.06C77.126 64.456 78.873 62.794 80.721 62.073 82.575 61.356 84.416 61.575 86.244 62.73V62.73C87.228 63.352 87.961 64.141 88.442 65.099 88.919 66.062 89.183 67.09 89.232 68.183 89.277 69.282 89.14 70.396 88.82 71.524 88.501 72.652 88.044 73.685 87.451 74.625V74.625L86.609 75.958 95.584 81.63C95.77 81.747 95.989 81.854 96.243 81.952 96.491 82.045 96.744 82.099 97.003 82.113 97.256 82.123 97.493 82.108 97.716 82.068 97.938 82.027 98.108 81.914 98.225 81.729V81.729L98.337 81.552 98.691 81.775 95.557 86.736 95.202 86.512 95.309 86.343C95.416 86.174 95.443 85.975 95.391 85.746 95.34 85.516 95.249 85.298 95.121 85.091 94.99 84.874 94.829 84.674 94.638 84.491 94.445 84.298 94.256 84.143 94.07 84.026V84.026L75.309 72.169C74.977 71.96 74.54 71.817 73.997 71.742 73.458 71.661 73.054 71.783 72.785 72.109V72.109ZM76.179 68.682L75.87 69.171 85.377 75.179 86.043 74.125C86.637 73.186 87.037 72.266 87.244 71.366 87.454 70.46 87.503 69.629 87.391 68.873 87.282 68.112 87.039 67.431 86.662 66.831 86.286 66.231 85.817 65.754 85.254 65.398V65.398C84.568 64.964 83.856 64.672 83.118 64.52 82.379 64.368 81.621 64.397 80.844 64.606 80.069 64.824 79.286 65.259 78.498 65.909 77.709 66.56 76.936 67.484 76.179 68.682ZM115.382 60.664V60.664L115.534 60.521 115.821 60.826 111.548 64.847 111.261 64.542 111.414 64.399C111.554 64.266 111.628 64.083 111.635 63.848 111.642 63.612 111.617 63.372 111.558 63.125 111.49 62.878 111.389 62.64 111.255 62.41 111.112 62.18 110.965 61.985 110.814 61.825V61.825L95.603 45.663C95.466 45.518 95.294 45.374 95.087 45.231 94.87 45.088 94.643 44.978 94.405 44.9 94.162 44.827 93.928 44.791 93.702 44.794 93.476 44.796 93.293 44.864 93.152 44.996V44.996L93 45.14 92.713 44.835 97.988 39.869C100.009 37.968 101.942 36.892 103.79 36.642 105.629 36.392 107.273 37.037 108.723 38.578V38.578C109.443 39.343 109.949 40.133 110.239 40.946 110.53 41.76 110.656 42.573 110.617 43.386 110.583 44.204 110.396 45.01 110.057 45.805 109.722 46.595 109.288 47.356 108.752 48.088V48.088L114.072 49.372C115.361 49.684 116.647 49.972 117.928 50.237 119.205 50.506 120.497 50.806 121.805 51.138V51.138C122.132 51.204 122.486 51.269 122.865 51.332 123.249 51.391 123.625 51.421 123.992 51.423 124.35 51.424 124.687 51.38 125.005 51.291 125.323 51.202 125.594 51.053 125.817 50.843V50.843L126.104 51.148 124.796 52.379C123.987 53.141 123.141 53.567 122.258 53.658 121.371 53.744 120.509 53.687 119.672 53.488V53.488C117.503 53.008 115.323 52.506 113.131 51.983 110.935 51.456 108.765 50.94 106.62 50.438V50.438C106.379 50.628 106.118 50.827 105.839 51.035 105.56 51.243 105.288 51.43 105.024 51.597V51.597L112.849 59.91C112.999 60.07 113.185 60.228 113.406 60.386 113.623 60.538 113.855 60.653 114.102 60.731 114.344 60.805 114.578 60.849 114.804 60.866 115.029 60.882 115.222 60.815 115.382 60.664ZM97.288 42.474L96.838 42.898 104.087 50.601 104.24 50.457C104.418 50.326 104.689 50.099 105.051 49.776 105.414 49.453 105.86 49.043 106.388 48.546V48.546C106.809 48.149 107.196 47.662 107.547 47.084 107.899 46.507 108.135 45.864 108.255 45.157 108.371 44.455 108.329 43.722 108.131 42.958 107.928 42.199 107.464 41.434 106.739 40.664V40.664C106.019 39.898 105.283 39.408 104.532 39.192 103.78 38.986 103.016 38.984 102.238 39.186 101.455 39.393 100.652 39.787 99.83 40.37 99.007 40.952 98.16 41.653 97.288 42.474ZM121.497 21.776L121.278 21.418 126.363 18.313 126.581 18.671 126.403 18.78C126.238 18.881 126.124 19.04 126.062 19.257 126 19.474 125.974 19.7 125.985 19.935 126.002 20.167 126.048 20.415 126.125 20.68 126.203 20.937 126.294 21.15 126.398 21.32V21.32L137.964 40.262C138.079 40.449 138.228 40.643 138.412 40.842 138.593 41.036 138.796 41.196 139.022 41.323 139.244 41.445 139.464 41.537 139.681 41.599 139.898 41.661 140.101 41.635 140.288 41.521V41.521L140.467 41.411 140.685 41.769 135.601 44.874 135.382 44.516 135.561 44.407C135.754 44.289 135.882 44.122 135.944 43.904 136.006 43.687 136.031 43.446 136.017 43.181 135.994 42.915 135.941 42.655 135.857 42.402 135.764 42.147 135.66 41.926 135.545 41.739V41.739L123.979 22.797C123.875 22.627 123.737 22.45 123.563 22.268 123.38 22.083 123.18 21.929 122.964 21.804 122.741 21.682 122.519 21.599 122.298 21.556 122.076 21.512 121.869 21.549 121.676 21.667V21.667ZM161.967 32.567V32.567L162.156 32.502 162.293 32.898 156.711 34.832 156.574 34.436 156.772 34.367C156.979 34.295 157.134 34.153 157.237 33.942 157.34 33.73 157.415 33.5 157.462 33.251 157.508 32.996 157.513 32.737 157.479 32.475 157.442 32.206 157.387 31.968 157.316 31.76V31.76L149.709 9.798 145.145 11.379C144.73 11.523 144.398 11.743 144.149 12.041 143.892 12.334 143.707 12.655 143.596 13.003 143.482 13.346 143.429 13.702 143.438 14.072 143.444 14.436 143.502 14.775 143.611 15.089V15.089L143.224 15.223 141.738 10.933 159.4 4.816 160.886 9.106 160.49 9.243C160.381 8.929 160.22 8.626 160.006 8.334 159.783 8.038 159.522 7.79 159.221 7.592 158.911 7.389 158.568 7.251 158.19 7.178 157.811 7.098 157.41 7.131 156.989 7.277V7.277L152.35 8.884 159.956 30.846C160.028 31.053 160.132 31.274 160.27 31.508 160.411 31.734 160.576 31.934 160.763 32.108 160.954 32.274 161.149 32.411 161.348 32.518 161.547 32.625 161.754 32.641 161.967 32.567ZM193.363 13.55L193.326 13.132 199.26 12.6 199.297 13.017 199.088 13.036C198.87 13.056 198.684 13.149 198.532 13.316 198.38 13.477 198.257 13.675 198.165 13.91 198.072 14.139 198.004 14.382 197.96 14.64 197.909 14.892 197.892 15.117 197.91 15.316V15.316L198.907 26.428C198.427 26.665 197.876 26.881 197.252 27.077 196.628 27.274 195.976 27.449 195.295 27.604 194.615 27.765 193.916 27.904 193.199 28.022 192.488 28.146 191.829 28.235 191.219 28.29V28.29C188.727 28.513 186.52 28.294 184.597 27.632 182.667 26.963 181.032 26.014 179.693 24.785 178.36 23.555 177.32 22.122 176.572 20.486 175.824 18.85 175.373 17.177 175.22 15.468V15.468C175.066 13.751 175.212 12.025 175.657 10.289 176.102 8.545 176.881 6.956 177.995 5.52 179.101 4.078 180.552 2.866 182.348 1.883 184.143 0.901 186.326 0.294 188.897 0.063V0.063C189.865-0.023 190.77-0.021 191.613 0.07 192.456 0.162 193.202 0.248 193.851 0.33V0.33C194.216 0.385 194.535 0.433 194.806 0.475 195.077 0.518 195.308 0.53 195.5 0.513V0.513L195.868 0.48 196.263 4.883 195.856 4.92C195.613 4.073 195.226 3.41 194.695 2.93 194.164 2.45 193.569 2.099 192.908 1.878 192.246 1.657 191.557 1.531 190.84 1.502 190.129 1.466 189.468 1.475 188.859 1.53V1.53C186.785 1.716 185.018 2.245 183.56 3.117 182.108 3.982 180.951 5.041 180.088 6.294 179.225 7.54 178.623 8.91 178.283 10.404 177.942 11.897 177.837 13.363 177.966 14.801V14.801C178.11 16.404 178.556 17.96 179.306 19.47 180.056 20.979 181.039 22.296 182.256 23.423 183.466 24.557 184.888 25.435 186.52 26.056 188.152 26.678 189.922 26.903 191.831 26.732V26.732C192.354 26.685 192.998 26.564 193.762 26.369 194.526 26.173 195.276 25.819 196.011 25.305V25.305L195.137 15.565C195.119 15.366 195.07 15.147 194.988 14.907 194.912 14.66 194.802 14.433 194.656 14.225 194.51 14.011 194.348 13.839 194.169 13.708 193.99 13.57 193.791 13.511 193.572 13.531V13.531ZM217.284 1.697L217.366 1.286 223.16 2.439 223.078 2.85 222.873 2.809C222.658 2.766 222.453 2.804 222.26 2.921 222.067 3.039 221.887 3.193 221.721 3.384 221.554 3.574 221.42 3.788 221.318 4.026 221.218 4.257 221.148 4.47 221.109 4.666V4.666L217.9 20.796C217.688 21.859 217.601 22.859 217.638 23.796 217.681 24.741 217.895 25.591 218.281 26.346 218.666 27.101 219.243 27.748 220.011 28.287 220.786 28.822 221.788 29.211 223.014 29.455V29.455C224.371 29.725 225.501 29.723 226.404 29.448 227.313 29.174 228.052 28.734 228.62 28.128 229.195 27.524 229.638 26.798 229.949 25.951 230.258 25.11 230.498 24.266 230.666 23.418V23.418L233.892 7.21C233.931 7.014 233.948 6.79 233.944 6.538 233.934 6.279 233.889 6.029 233.808 5.789 233.733 5.55 233.63 5.34 233.496 5.157 233.363 4.975 233.198 4.864 233.003 4.825V4.825L232.797 4.784 232.879 4.373 237.332 5.259 237.25 5.67 237.045 5.629C236.83 5.586 236.632 5.625 236.452 5.745 236.272 5.866 236.099 6.021 235.932 6.212 235.772 6.404 235.637 6.618 235.529 6.854 235.429 7.085 235.36 7.298 235.321 7.494V7.494L232.119 23.585C231.767 25.353 231.26 26.758 230.598 27.8 229.936 28.841 229.162 29.613 228.275 30.115 227.381 30.622 226.397 30.895 225.325 30.932 224.258 30.978 223.15 30.886 222.002 30.658V30.658C220.781 30.415 219.672 30.058 218.673 29.588 217.675 29.118 216.862 28.482 216.235 27.679 215.601 26.874 215.178 25.864 214.966 24.648 214.753 23.432 214.818 21.967 215.159 20.25V20.25L218.369 4.121C218.408 3.925 218.425 3.701 218.421 3.45 218.412 3.19 218.37 2.941 218.295 2.702 218.214 2.462 218.107 2.251 217.974 2.068 217.84 1.886 217.679 1.776 217.49 1.738V1.738ZM254.772 12.105L254.942 11.722 260.39 14.133 260.22 14.516 260.029 14.431C259.852 14.353 259.657 14.351 259.443 14.423 259.229 14.496 259.029 14.604 258.842 14.746 258.661 14.892 258.483 15.072 258.309 15.285 258.143 15.496 258.019 15.692 257.939 15.875V15.875L248.957 36.17C248.868 36.371 248.794 36.603 248.735 36.868 248.679 37.127 248.663 37.386 248.687 37.644 248.713 37.895 248.763 38.128 248.836 38.342 248.908 38.556 249.045 38.708 249.246 38.797V38.797L249.437 38.882 249.268 39.265 243.82 36.854 243.989 36.471 244.181 36.555C244.388 36.647 244.598 36.656 244.812 36.584 245.026 36.511 245.238 36.394 245.448 36.232 245.655 36.062 245.838 35.87 245.997 35.657 246.154 35.435 246.276 35.224 246.365 35.023V35.023L255.347 14.728C255.428 14.545 255.494 14.331 255.545 14.084 255.592 13.829 255.606 13.576 255.585 13.327 255.558 13.075 255.5 12.845 255.41 12.638 255.319 12.431 255.171 12.282 254.964 12.19V12.19ZM260.057 45.562L260.309 45.227 260.469 45.347C260.628 45.467 260.824 45.511 261.057 45.478 261.29 45.445 261.523 45.379 261.756 45.279 261.988 45.17 262.205 45.03 262.409 44.859 262.612 44.678 262.779 44.5 262.911 44.325V44.325L276.25 26.587C276.37 26.427 276.483 26.233 276.588 26.005 276.692 25.767 276.768 25.528 276.815 25.288 276.856 25.045 276.857 24.812 276.816 24.59 276.775 24.368 276.664 24.189 276.483 24.053V24.053L276.324 23.933 276.575 23.598 282.996 28.426C284.75 29.746 286.097 31.237 287.036 32.9 287.973 34.554 288.537 36.26 288.729 38.02 288.916 39.775 288.763 41.512 288.27 43.23 287.78 44.943 286.994 46.52 285.91 47.961V47.961C284.891 49.317 283.651 50.462 282.192 51.395 280.727 52.325 279.121 52.932 277.375 53.217 275.634 53.506 273.792 53.415 271.849 52.944 269.911 52.478 267.977 51.518 266.047 50.067V50.067ZM283.275 46.766V46.766C284.343 45.347 285.097 43.812 285.539 42.163 285.98 40.513 286.094 38.872 285.882 37.239 285.665 35.603 285.141 34.035 284.312 32.537 283.473 31.041 282.319 29.74 280.852 28.637V28.637L279.161 27.365 264.394 47.001 266.157 48.327C267.353 49.226 268.695 49.949 270.184 50.493 271.667 51.034 273.185 51.29 274.739 51.26 276.288 51.226 277.802 50.862 279.281 50.168 280.76 49.474 282.092 48.34 283.275 46.766ZM285.635 67.559L285.967 67.303 286.095 67.469C286.229 67.642 286.408 67.748 286.63 67.786 286.853 67.824 287.09 67.826 287.341 67.792 287.592 67.758 287.838 67.69 288.079 67.588 288.323 67.491 288.533 67.376 288.706 67.241V67.241L306.331 53.622C306.489 53.5 306.643 53.334 306.793 53.126 306.952 52.919 307.08 52.698 307.176 52.464 307.273 52.23 307.331 52 307.35 51.775 307.37 51.549 307.312 51.35 307.178 51.176V51.176L307.05 51.01 307.381 50.754 317.181 63.436 314.118 65.803 313.867 65.479C314.336 65.041 314.626 64.498 314.738 63.848 314.854 63.204 314.623 62.508 314.045 61.76V61.76L308.926 55.135 300.587 61.579 304.816 67.051C305.206 67.556 305.687 67.858 306.258 67.954 306.828 68.061 307.321 67.953 307.737 67.632V67.632L307.993 67.963 303.879 71.142 303.623 70.811C304.017 70.506 304.231 70.08 304.263 69.534 304.291 68.983 304.101 68.444 303.695 67.918V67.918L299.466 62.445 289.485 70.158 295.062 77.376C295.384 77.791 295.764 78.077 296.204 78.233 296.635 78.388 297.069 78.465 297.505 78.464 297.938 78.458 298.353 78.381 298.751 78.233 299.145 78.089 299.452 77.931 299.673 77.76V77.76L299.929 78.092 296.076 81.07ZM303.509 94.924V94.924L303.589 95.118 303.202 95.278 301.434 91.009 301.821 90.849 301.897 91.033C301.974 91.218 302.123 91.361 302.345 91.463 302.568 91.566 302.802 91.627 303.048 91.648 303.298 91.659 303.557 91.649 303.824 91.618 304.096 91.577 304.333 91.515 304.536 91.431V91.431L325.04 82.938C325.224 82.861 325.423 82.757 325.635 82.626 325.853 82.493 326.042 82.332 326.201 82.143 326.361 81.955 326.475 81.742 326.542 81.505 326.61 81.268 326.59 81.021 326.483 80.763V80.763L326.403 80.569 326.79 80.409 328.402 84.299 312.177 107.374 331.796 99.247C331.98 99.171 332.173 99.055 332.375 98.899 332.583 98.741 332.765 98.561 332.919 98.36 333.074 98.16 333.19 97.953 333.267 97.741 333.345 97.529 333.342 97.321 333.258 97.118V97.118L333.178 96.925 333.565 96.764 335.348 101.07 334.961 101.23 334.881 101.037C334.797 100.834 334.653 100.685 334.447 100.59 334.242 100.495 334.014 100.431 333.763 100.398 333.512 100.365 333.259 100.373 333.005 100.42 332.758 100.465 332.542 100.526 332.357 100.602V100.602L309.354 110.131 308.365 107.743 324.676 84.666 305.093 92.777C304.89 92.861 304.677 92.982 304.455 93.139 304.235 93.287 304.045 93.463 303.885 93.667 303.728 93.861 303.605 94.07 303.518 94.294 303.428 94.511 303.425 94.721 303.509 94.924ZM80.424 195.84V195.84C79.107 196.284 77.893 196.402 76.784 196.193 75.672 195.978 74.69 195.554 73.838 194.922 72.98 194.292 72.243 193.501 71.627 192.55 71.02 191.604 70.543 190.616 70.197 189.589V189.589C69.844 188.542 69.643 187.603 69.594 186.77 69.545 185.937 69.508 185.173 69.485 184.479V184.479C69.469 184.014 69.45 183.596 69.43 183.223 69.41 182.851 69.342 182.495 69.227 182.154V182.154L73.719 180.64 73.85 181.027C72.848 181.365 72.137 181.893 71.719 182.609 71.305 183.318 71.055 184.065 70.969 184.853 70.886 185.646 70.912 186.399 71.047 187.112 71.188 187.822 71.312 188.335 71.418 188.651V188.651C71.799 189.779 72.291 190.698 72.895 191.407 73.497 192.109 74.154 192.632 74.866 192.975 75.585 193.315 76.315 193.501 77.055 193.532 77.796 193.563 78.507 193.464 79.188 193.234V193.234C80.058 192.941 80.723 192.509 81.184 191.94 81.653 191.374 82.012 190.72 82.259 189.976 82.507 189.233 82.661 188.43 82.721 187.567 82.779 186.698 82.833 185.816 82.883 184.922V184.922C82.921 183.912 82.978 182.913 83.052 181.926 83.131 180.931 83.323 180.002 83.629 179.141 83.94 178.271 84.397 177.503 85 176.836 85.608 176.16 86.464 175.637 87.567 175.265V175.265C88.72 174.876 89.801 174.76 90.81 174.919 91.812 175.08 92.715 175.438 93.521 175.995 94.322 176.56 95.023 177.275 95.624 178.14 96.224 179.005 96.694 179.938 97.032 180.941V180.941C97.261 181.621 97.431 182.28 97.54 182.917 97.656 183.552 97.74 184.166 97.793 184.759V184.759C97.837 185.243 97.898 185.707 97.977 186.151 98.048 186.59 98.151 187.008 98.285 187.405V187.405L94.228 188.773 94.094 188.376C95.445 187.864 96.19 187.013 96.329 185.822 96.47 184.637 96.235 183.137 95.622 181.321V181.321C95.269 180.274 94.803 179.473 94.222 178.918 93.638 178.371 93.024 177.988 92.382 177.769 91.737 177.544 91.094 177.459 90.453 177.514 89.811 177.569 89.27 177.671 88.829 177.82V177.82C88.091 178.068 87.516 178.445 87.103 178.949 86.686 179.462 86.375 180.058 86.169 180.738 85.959 181.427 85.817 182.184 85.744 183.009 85.674 183.84 85.626 184.699 85.602 185.584V185.584C85.561 186.588 85.501 187.616 85.42 188.668 85.333 189.723 85.125 190.709 84.796 191.627 84.458 192.542 83.948 193.37 83.265 194.113 82.575 194.858 81.628 195.434 80.424 195.84ZM103.623 198.112L103.977 197.888 107.133 202.882C108.779 205.486 109.529 207.774 109.383 209.748 109.24 211.726 108.255 213.293 106.427 214.448V214.448C105.443 215.07 104.414 215.39 103.339 215.408 102.273 215.429 101.236 215.226 100.228 214.801 99.216 214.37 98.269 213.768 97.387 212.995 96.509 212.228 95.773 211.375 95.18 210.436V210.436L94.337 209.103 85.378 214.765C85.193 214.882 85.002 215.034 84.805 215.221 84.609 215.408 84.451 215.614 84.333 215.838 84.215 216.062 84.127 216.283 84.068 216.502 84.009 216.72 84.038 216.922 84.155 217.107V217.107L84.267 217.285 83.913 217.508 80.778 212.548 81.133 212.324 81.245 212.501C81.348 212.664 81.514 212.772 81.744 212.824 81.973 212.875 82.211 212.89 82.457 212.869 82.703 212.847 82.952 212.788 83.206 212.69 83.459 212.593 83.679 212.486 83.864 212.369V212.369L102.601 200.529C102.927 200.323 103.242 199.993 103.547 199.541 103.851 199.089 103.914 198.672 103.735 198.289V198.289ZM105.369 202.817L105.059 202.327 95.569 208.325 96.235 209.379C96.825 210.313 97.484 211.069 98.212 211.648 98.936 212.221 99.664 212.619 100.395 212.842 101.129 213.07 101.848 213.143 102.552 213.061 103.255 212.978 103.888 212.759 104.451 212.404V212.404C105.125 211.978 105.693 211.462 106.152 210.856 106.606 210.255 106.903 209.56 107.042 208.771 107.178 207.977 107.121 207.084 106.872 206.093 106.627 205.107 106.126 204.015 105.369 202.817ZM103.975 241.405V241.405L104.128 241.548 103.841 241.853 99.575 237.838 99.863 237.533 100.008 237.67C100.153 237.807 100.343 237.872 100.579 237.865 100.814 237.857 101.05 237.815 101.288 237.737 101.53 237.664 101.762 237.549 101.983 237.391 102.209 237.239 102.397 237.082 102.548 236.923V236.923L117.739 220.784C117.871 220.643 118 220.463 118.125 220.243 118.26 220.022 118.356 219.788 118.415 219.542 118.483 219.295 118.508 219.059 118.492 218.834 118.471 218.613 118.388 218.434 118.243 218.298V218.298L118.098 218.161 118.385 217.856 123.653 222.814C125.668 224.711 126.856 226.57 127.217 228.39 127.574 230.214 127.029 231.895 125.584 233.43V233.43C124.863 234.196 124.106 234.748 123.311 235.087 122.521 235.422 121.719 235.599 120.906 235.619 120.092 235.629 119.278 235.489 118.465 235.199 117.656 234.912 116.87 234.524 116.107 234.034V234.034L115.147 239.422C114.918 240.723 114.708 242.019 114.517 243.31 114.334 244.6 114.115 245.905 113.858 247.226V247.226C113.807 247.562 113.764 247.923 113.729 248.31 113.693 248.688 113.686 249.06 113.706 249.427 113.726 249.784 113.791 250.118 113.899 250.43 114.007 250.742 114.173 251.003 114.396 251.213V251.213L114.108 251.518 112.8 250.287C111.996 249.53 111.522 248.714 111.378 247.838 111.233 246.953 111.235 246.087 111.384 245.24V245.24C111.732 243.055 112.101 240.853 112.49 238.634 112.889 236.414 113.272 234.221 113.64 232.055V232.055C113.435 231.826 113.22 231.578 112.996 231.312 112.771 231.046 112.568 230.786 112.386 230.532V230.532L104.575 238.831C104.425 238.991 104.278 239.186 104.134 239.416 103.995 239.651 103.894 239.889 103.831 240.131 103.773 240.378 103.742 240.614 103.739 240.84 103.737 241.066 103.816 241.254 103.975 241.405ZM121.011 222.273L120.56 221.849 113.323 229.537 113.476 229.681C113.618 229.851 113.861 230.107 114.205 230.449 114.55 230.792 114.984 231.209 115.507 231.702V231.702C115.933 232.103 116.445 232.462 117.043 232.778 117.641 233.094 118.294 233.288 119.002 233.361 119.706 233.439 120.433 233.355 121.183 233.111 121.929 232.863 122.664 232.354 123.389 231.583V231.583C124.109 230.818 124.552 230.056 124.718 229.298 124.878 228.536 124.834 227.772 124.585 227.008 124.34 226.239 123.903 225.461 123.272 224.676 122.636 223.895 121.883 223.094 121.011 222.273ZM140.582 236.936L140.801 236.578 145.877 239.677 145.658 240.035 145.48 239.926C145.315 239.825 145.124 239.794 144.905 239.832 144.684 239.876 144.469 239.96 144.262 240.082 144.063 240.203 143.865 240.355 143.668 240.538 143.472 240.731 143.324 240.909 143.224 241.074V241.074L131.674 259.99C131.559 260.178 131.455 260.399 131.362 260.654 131.275 260.912 131.225 261.166 131.213 261.416 131.206 261.669 131.225 261.907 131.269 262.128 131.313 262.35 131.428 262.518 131.616 262.633V262.633L131.794 262.742 131.576 263.099 126.5 260 126.718 259.642 126.897 259.752C127.084 259.866 127.289 259.901 127.511 259.857 127.732 259.813 127.958 259.725 128.187 259.592 128.416 259.459 128.623 259.293 128.807 259.094 128.997 258.898 129.149 258.706 129.263 258.519V258.519L140.813 239.602C140.914 239.437 141.003 239.234 141.08 238.993 141.166 238.75 141.213 238.501 141.219 238.248 141.229 237.989 141.203 237.751 141.141 237.534 141.075 237.322 140.948 237.159 140.761 237.045V237.045ZM156.528 273.111V273.111L156.726 273.18 156.589 273.576 151.006 271.643 151.143 271.247 151.341 271.316C151.549 271.387 151.758 271.372 151.97 271.269 152.182 271.166 152.383 271.032 152.574 270.866 152.766 270.7 152.93 270.5 153.067 270.266 153.205 270.032 153.309 269.811 153.381 269.603V269.603L160.972 247.679 156.418 246.102C155.996 245.956 155.597 245.92 155.22 245.993 154.842 246.067 154.502 246.206 154.199 246.41 153.895 246.615 153.634 246.863 153.414 247.152 153.194 247.442 153.029 247.744 152.92 248.059V248.059L152.534 247.925 154.016 243.644 171.65 249.749 170.168 254.031 169.781 253.897C169.89 253.582 169.948 253.243 169.954 252.879 169.96 252.515 169.908 252.159 169.796 251.811 169.684 251.462 169.503 251.143 169.252 250.851 169 250.56 168.664 250.342 168.243 250.196V250.196L163.603 248.59 156.012 270.514C155.94 270.722 155.889 270.961 155.859 271.232 155.822 271.501 155.827 271.76 155.875 272.009 155.922 272.257 155.988 272.484 156.072 272.689 156.162 272.897 156.314 273.037 156.528 273.111ZM194.317 265.803L194.354 265.386 200.278 265.916 200.241 266.334 200.032 266.315C199.813 266.296 199.614 266.355 199.435 266.492 199.256 266.623 199.101 266.796 198.968 267.011 198.842 267.221 198.732 267.448 198.636 267.693 198.548 267.932 198.495 268.148 198.478 268.34V268.34L197.483 279.442C196.969 279.59 196.388 279.705 195.739 279.787 195.091 279.869 194.418 279.926 193.72 279.957 193.022 279.995 192.31 280.008 191.583 279.996 190.862 279.991 190.196 279.962 189.587 279.907V279.907C187.102 279.685 184.972 279.076 183.198 278.082 181.423 277.088 179.989 275.868 178.897 274.421 177.798 272.966 177.029 271.371 176.59 269.635 176.145 267.899 175.999 266.176 176.152 264.466V264.466C176.305 262.75 176.756 261.077 177.503 259.447 178.244 257.817 179.289 256.395 180.641 255.18 181.985 253.964 183.625 253.032 185.56 252.384 187.502 251.737 189.755 251.528 192.319 251.757V251.757C193.287 251.844 194.177 252.007 194.99 252.247 195.804 252.487 196.522 252.705 197.146 252.901V252.901C197.496 253.02 197.801 253.124 198.06 253.214 198.312 253.303 198.535 253.356 198.727 253.374V253.374L199.105 253.407 198.711 257.801 198.294 257.763C198.204 256.894 197.942 256.175 197.505 255.609 197.068 255.042 196.547 254.591 195.943 254.256 195.331 253.921 194.679 253.676 193.985 253.52 193.285 253.357 192.633 253.248 192.03 253.194V253.194C189.956 253.009 188.128 253.212 186.545 253.805 184.962 254.405 183.634 255.241 182.563 256.314 181.492 257.387 180.656 258.628 180.055 260.037 179.455 261.439 179.091 262.859 178.962 264.297V264.297C178.819 265.901 178.982 267.508 179.452 269.12 179.921 270.739 180.651 272.21 181.641 273.534 182.638 274.859 183.881 275.973 185.37 276.874 186.865 277.776 188.564 278.313 190.466 278.483V278.483C190.996 278.531 191.651 278.526 192.431 278.469 193.217 278.412 194.018 278.197 194.833 277.822V277.822L195.705 268.092C195.722 267.899 195.712 267.678 195.674 267.428 195.644 267.171 195.575 266.928 195.469 266.698 195.363 266.461 195.234 266.263 195.082 266.102 194.93 265.935 194.744 265.841 194.526 265.822V265.822ZM210.164 252.347L210.082 251.936 215.866 250.784 215.948 251.195 215.743 251.236C215.527 251.279 215.352 251.388 215.218 251.564 215.085 251.747 214.978 251.962 214.898 252.208 214.824 252.447 214.782 252.696 214.772 252.956 214.768 253.207 214.785 253.428 214.823 253.617V253.617L218.03 269.727C218.242 270.79 218.544 271.748 218.937 272.599 219.338 273.455 219.862 274.158 220.507 274.708 221.152 275.258 221.932 275.632 222.847 275.829 223.761 276.027 224.832 276.004 226.058 275.76V275.76C227.416 275.49 228.458 275.055 229.187 274.455 229.917 273.862 230.431 273.176 230.731 272.398 231.023 271.614 231.151 270.774 231.115 269.879 231.079 268.984 230.977 268.113 230.808 267.264V267.264L227.585 251.076C227.547 250.887 227.478 250.677 227.378 250.446 227.27 250.21 227.136 249.996 226.976 249.804 226.807 249.606 226.627 249.449 226.434 249.332 226.242 249.22 226.052 249.184 225.863 249.221V249.221L225.657 249.262 225.575 248.851 230.019 247.967 230.1 248.378 229.895 248.419C229.68 248.461 229.511 248.57 229.39 248.743 229.269 248.923 229.169 249.136 229.09 249.383 229.015 249.621 228.973 249.871 228.964 250.13 228.96 250.382 228.976 250.603 229.014 250.792V250.792L232.213 266.862C232.565 268.631 232.635 270.123 232.423 271.338 232.217 272.553 231.797 273.562 231.164 274.367 230.53 275.171 229.729 275.796 228.759 276.24 227.79 276.69 226.735 277.029 225.593 277.257V277.257C224.367 277.501 223.205 277.596 222.109 277.543 221.007 277.491 220.012 277.214 219.125 276.713 218.232 276.212 217.455 275.444 216.795 274.409 216.139 273.366 215.641 271.986 215.299 270.27V270.27L212.092 254.161C212.054 253.971 211.982 253.762 211.875 253.532 211.774 253.295 211.64 253.081 211.473 252.89 211.311 252.692 211.134 252.534 210.941 252.416 210.749 252.305 210.555 252.269 210.36 252.308V252.308ZM239.976 244.361L239.806 243.978 245.245 241.57 245.414 241.953 245.223 242.038C245.046 242.116 244.912 242.256 244.819 242.457 244.729 242.664 244.675 242.888 244.658 243.129 244.644 243.36 244.656 243.61 244.694 243.876 244.741 244.147 244.804 244.37 244.882 244.546V244.546L253.854 264.813C253.943 265.014 254.066 265.225 254.222 265.447 254.385 265.666 254.565 265.851 254.763 266.004 254.968 266.153 255.174 266.273 255.381 266.363 255.588 266.453 255.792 266.454 255.993 266.365V266.365L256.185 266.28 256.354 266.664 250.916 269.071 250.746 268.688 250.938 268.603C251.139 268.514 251.284 268.366 251.374 268.159 251.464 267.952 251.52 267.716 251.541 267.452 251.563 267.188 251.544 266.924 251.485 266.659 251.432 266.391 251.361 266.157 251.272 265.956V265.956L242.299 245.69C242.221 245.513 242.105 245.325 241.951 245.124 241.8 244.914 241.622 244.735 241.417 244.585 241.21 244.429 241 244.315 240.786 244.243 240.574 244.176 240.368 244.187 240.167 244.276V244.276ZM270.59 258.341L270.338 258.006 270.506 257.88C270.66 257.764 270.754 257.59 270.786 257.357 270.819 257.124 270.82 256.882 270.789 256.63 270.758 256.379 270.684 256.131 270.567 255.886 270.454 255.638 270.332 255.426 270.2 255.25V255.25L256.875 237.54C256.759 237.385 256.603 237.228 256.407 237.067 256.212 236.897 256.004 236.759 255.781 236.651 255.56 236.534 255.337 236.465 255.112 236.443 254.892 236.426 254.691 236.485 254.51 236.621V236.621L254.343 236.747 254.091 236.412 260.51 231.582C262.259 230.266 264.058 229.387 265.906 228.945 267.764 228.505 269.563 228.438 271.301 228.745 273.039 229.053 274.663 229.679 276.174 230.624 277.684 231.569 278.979 232.759 280.059 234.195V234.195C281.079 235.55 281.831 237.058 282.313 238.718 282.806 240.379 282.947 242.088 282.737 243.844 282.528 245.592 281.93 247.332 280.944 249.064 279.959 250.797 278.501 252.389 276.571 253.841V253.841ZM278.18 236.395V236.395C277.113 234.975 275.849 233.828 274.391 232.952 272.929 232.071 271.384 231.506 269.756 231.257 268.128 231.008 266.482 231.077 264.817 231.464 263.146 231.855 261.58 232.601 260.118 233.701V233.701L258.427 234.973 273.175 254.573 274.937 253.247C276.134 252.347 277.197 251.26 278.128 249.985 279.063 248.715 279.728 247.332 280.125 245.834 280.522 244.337 280.592 242.781 280.335 241.168 280.083 239.559 279.365 237.968 278.181 236.395ZM299.49 233.052L299.158 232.795 299.28 232.637C299.418 232.458 299.478 232.256 299.458 232.031 299.439 231.806 299.379 231.579 299.278 231.35 299.182 231.116 299.056 230.892 298.901 230.68 298.746 230.477 298.58 230.306 298.401 230.168V230.168L280.798 216.569C280.645 216.451 280.451 216.344 280.215 216.246 279.971 216.149 279.723 216.084 279.472 216.05 279.22 216.006 278.982 216.003 278.759 216.041 278.542 216.084 278.364 216.194 278.226 216.373V216.373L278.104 216.531 277.772 216.275 287.557 203.607 290.614 205.968 290.357 206.3C289.825 205.956 289.23 205.812 288.573 205.868 287.916 205.923 287.301 206.322 286.728 207.065V207.065L281.615 213.683 289.939 220.113 294.161 214.648C294.551 214.142 294.724 213.603 294.679 213.03 294.633 212.448 294.401 211.997 293.985 211.675V211.675L294.242 211.344 298.356 214.522 298.1 214.854C297.705 214.549 297.237 214.452 296.697 214.564 296.16 214.671 295.689 214.988 295.282 215.514V215.514L291.061 220.979 301.027 228.678 306.597 221.468C306.918 221.052 307.099 220.616 307.14 220.16 307.18 219.695 307.143 219.254 307.027 218.837 306.916 218.415 306.742 218.032 306.503 217.688 306.255 217.345 306.02 217.088 305.799 216.917V216.917L306.056 216.586 309.909 219.563ZM318.896 201.368V201.368L318.976 201.174 319.363 201.335 317.596 205.604 317.208 205.443 317.289 205.25C317.362 205.072 317.357 204.868 317.272 204.638 317.189 204.402 317.067 204.193 316.905 204.011 316.745 203.823 316.555 203.647 316.335 203.483 316.117 203.314 315.907 203.187 315.704 203.103V203.103L295.225 194.625C295.047 194.552 294.835 194.489 294.59 194.438 294.341 194.378 294.095 194.356 293.852 194.37 293.599 194.388 293.366 194.457 293.15 194.576 292.941 194.699 292.783 194.889 292.677 195.147V195.147L292.596 195.341 292.209 195.18 293.816 191.299 321.56 186.454 301.967 178.342C301.788 178.268 301.573 178.215 301.32 178.183 301.061 178.147 300.806 178.146 300.554 178.179 300.297 178.209 300.066 178.272 299.861 178.367 299.662 178.465 299.521 178.615 299.437 178.818V178.818L299.357 179.011 298.969 178.851 300.752 174.545 301.139 174.706 301.059 174.899C300.973 175.108 300.965 175.318 301.037 175.527 301.114 175.739 301.235 175.944 301.398 176.141 301.553 176.342 301.736 176.515 301.95 176.661 302.154 176.811 302.346 176.922 302.524 176.996V176.996L325.501 186.508 324.516 188.887 296.705 193.661 316.261 201.757C316.464 201.841 316.699 201.909 316.965 201.962 317.231 202.015 317.49 202.025 317.741 201.992 317.992 201.959 318.226 201.897 318.444 201.807 318.661 201.717 318.812 201.571 318.896 201.368ZM68.431 144.977C68.431 143.211 69.862 141.779 71.628 141.779 73.394 141.779 74.826 143.211 74.826 144.977 74.826 146.743 73.394 148.174 71.628 148.174 69.862 148.174 68.431 146.743 68.431 144.977ZM319.913 144.977C319.913 143.211 321.344 141.779 323.11 141.779 324.876 141.779 326.308 143.211 326.308 144.977 326.308 146.743 324.876 148.174 323.11 148.174 321.344 148.174 319.913 146.743 319.913 144.977Z" fill="#ffffff" data-fill-palette-color="primary"></path></svg></g></svg></g></svg></g></svg></g><defs></defs></svg><rect width="395.52" height="280" fill="none" stroke="none" visibility="hidden"></rect></g></svg></g></svg>